<svg width="46" height="46" viewBox="0 0 46 46" fill="none" xmlns="http://www.w3.org/2000/svg">
<path d="M46 22.9483C46 35.6223 35.7025 45.8967 23 45.8967C10.2975 45.8967 0 35.6223 0 22.9483C0 10.2743 10.2975 0 23 0C35.7025 0 46 10.2743 46 22.9483Z" fill="#969FAB"/>
<path fill-rule="evenodd" clip-rule="evenodd" d="M22.7478 23.1034C27.762 23.1034 31.8268 19.2158 31.8268 14.4202C31.8268 9.62466 27.762 5.73708 22.7478 5.73708C17.7337 5.73708 13.6689 9.62466 13.6689 14.4202C13.6689 19.2158 17.7337 23.1034 22.7478 23.1034ZM22.874 46C30.9858 46 38.6109 42.5965 38.6109 36.4308C38.6109 30.2651 30.9858 23.6719 22.874 23.6719C14.7622 23.6719 7.13721 31.0625 7.13721 37.2282C7.13721 43.394 14.7622 46 22.874 46Z" fill="white"/>
</svg>
