<svg width="46" height="46" viewBox="0 0 46 46" fill="none" xmlns="http://www.w3.org/2000/svg">
<path fill-rule="evenodd" clip-rule="evenodd" d="M0 1C0 0.447715 0.447715 0 1 0H45C45.5523 0 46 0.447715 46 1V45C46 45.5523 45.5523 46 45 46H1C0.447715 46 0 45.5523 0 45V1ZM31.3462 16.4768C31.3462 15.9245 30.8985 15.4768 30.3462 15.4768H17.3333C16.781 15.4768 16.3333 15.9245 16.3333 16.4768V28.2927C16.3333 28.845 16.781 29.2927 17.3333 29.2927H30.3462C30.8985 29.2927 31.3462 28.845 31.3462 28.2927V16.4768ZM31.3462 13.4768C31.3462 14.0291 30.8985 14.4768 30.3462 14.4768H17.3333C16.781 14.4768 16.3333 14.0291 16.3333 13.4768V1.62195C16.3333 1.34581 16.1094 1.12195 15.8333 1.12195V1.12195C15.5571 1.12195 15.3333 1.34581 15.3333 1.62195V13.4768C15.3333 14.0291 14.8855 14.4768 14.3333 14.4768H1.67944C1.4033 14.4768 1.17944 14.7006 1.17944 14.9768V14.9768C1.17944 15.2529 1.4033 15.4768 1.67944 15.4768H14.3333C14.8855 15.4768 15.3333 15.9245 15.3333 16.4768V28.2927C15.3333 28.845 14.8855 29.2927 14.3333 29.2927H1.67944C1.4033 29.2927 1.17944 29.5165 1.17944 29.7927V29.7927C1.17944 30.0688 1.4033 30.2927 1.67944 30.2927H14.3333C14.8855 30.2927 15.3333 30.7404 15.3333 31.2927V44.378C15.3333 44.6542 15.5571 44.878 15.8333 44.878V44.878C16.1094 44.878 16.3333 44.6542 16.3333 44.378V31.2927C16.3333 30.7404 16.781 30.2927 17.3333 30.2927H30.3462C30.8985 30.2927 31.3462 30.7404 31.3462 31.2927V44.378C31.3462 44.6542 31.57 44.878 31.8462 44.878V44.878C32.1223 44.878 32.3462 44.6542 32.3462 44.378V31.2927C32.3462 30.7404 32.7939 30.2927 33.3462 30.2927H44.3205C44.5966 30.2927 44.8205 30.0688 44.8205 29.7927V29.7927C44.8205 29.5165 44.5966 29.2927 44.3205 29.2927H33.3462C32.7939 29.2927 32.3462 28.845 32.3462 28.2927V16.4768C32.3462 15.9245 32.7939 15.4768 33.3462 15.4768H44.3205C44.5966 15.4768 44.8205 15.2529 44.8205 14.9768V14.9768C44.8205 14.7006 44.5966 14.4768 44.3205 14.4768H33.3462C32.7939 14.4768 32.3462 14.0291 32.3462 13.4768V1.62195C32.3462 1.34581 32.1223 1.12195 31.8462 1.12195V1.12195C31.57 1.12195 31.3462 1.34581 31.3462 1.62195V13.4768Z" fill="#969FAB"/>
</svg>
