<svg width="47" height="46" viewBox="0 0 47 46" fill="none" xmlns="http://www.w3.org/2000/svg">
<path fill-rule="evenodd" clip-rule="evenodd" d="M25.2697 2.3416C25.2737 2.29167 25.2758 2.24127 25.2758 2.19048C25.2758 0.980709 24.1236 0 22.7024 0C21.2812 0 20.129 0.980709 20.129 2.19048C20.129 2.24537 20.1314 2.29979 20.1361 2.35366C18.6752 2.53694 17.2431 2.87347 15.8727 3.35763C13.6918 4.1282 11.7101 5.25765 10.0408 6.68148C8.37159 8.10531 7.04747 9.79565 6.14408 11.656C5.2407 13.5163 4.77573 15.5102 4.77573 17.5238H4.77597V30.6666H5.27601L5.27593 30.6667H4.6888V31.1271C4.08615 31.5883 3.44621 32.0472 2.83144 32.4809C2.62197 32.6286 2.4147 32.774 2.21274 32.9156L2.21232 32.9159L2.21167 32.9163C1.56822 33.3675 0.978691 33.7809 0.543148 34.1151C-0.0824832 34.5952 -0.108991 35.4347 0.316503 36.0055L2.79102 39.3251C3.07412 39.7048 3.51997 39.9286 3.99366 39.9286H42.7233C43.2557 39.9286 43.7481 39.6464 44.0173 39.1871L45.8235 36.1059C46.2222 35.4257 46.0262 34.5528 45.3749 34.1084L40.7159 30.9291V30.6667H40.3313L40.3312 30.6666H40.7284V17.5238L40.7281 17.5238C40.7281 15.5102 40.2631 13.5163 39.3598 11.656C38.4564 9.79564 37.1322 8.10531 35.463 6.68148C33.7938 5.25765 31.8121 4.1282 29.6311 3.35763C28.2301 2.86265 26.7646 2.52197 25.2697 2.3416ZM1.07148 35C1.07623 34.9918 1.08133 34.9839 1.08677 34.9762V35H1.07148ZM44.8891 35C44.8829 34.9935 44.8764 34.9872 44.8698 34.981C44.8597 34.9717 44.8491 34.9627 44.8381 34.954L44.8849 35H44.8891ZM27.8494 41.619C27.8494 42.1944 27.7163 42.764 27.4576 43.2956C27.199 43.8271 26.8199 44.31 26.342 44.7169C25.864 45.1237 25.2967 45.4464 24.6722 45.6665C24.0478 45.8867 23.3786 46 22.7027 46C22.0268 46 21.3575 45.8867 20.7331 45.6665C20.1087 45.4464 19.5413 45.1237 19.0634 44.7169C18.5855 44.31 18.2064 43.8271 17.9477 43.2956C17.6891 42.764 17.556 42.1944 17.556 41.619H22.7027H27.8494Z" fill="#969FAB"/>
</svg>
