<svg width="44" height="34" viewBox="0 0 44 34" fill="none" xmlns="http://www.w3.org/2000/svg">
<path d="M1.36 34V7.696L0.88 2.896L1.36 0.0159998H8.08V34H1.36ZM14.7775 34V7.744L13.8175 2.944L14.7775 0.0159998H25.2415C27.5455 0.0159998 29.7535 0.24 31.8655 0.688C34.0095 1.104 35.9135 1.904 37.5775 3.088C39.2735 4.272 40.6015 5.968 41.5615 8.176C42.5535 10.384 43.0495 13.248 43.0495 16.768C43.0495 20.288 42.5535 23.184 41.5615 25.456C40.5695 27.696 39.2255 29.44 37.5295 30.688C35.8335 31.936 33.9135 32.8 31.7695 33.28C29.6575 33.76 27.4815 34 25.2415 34H14.7775ZM21.5935 27.76H26.6815C30.0095 27.76 32.3775 26.784 33.7855 24.832C35.1935 22.848 35.8975 20.16 35.8975 16.768C35.8975 13.376 35.1775 10.784 33.7375 8.992C32.3295 7.168 29.9775 6.256 26.6815 6.256H21.5935V27.76Z" fill="black"/>
</svg>
