<svg width="126" height="81" viewBox="0 0 126 81" fill="none" xmlns="http://www.w3.org/2000/svg">
<rect y="11" width="68" height="65" fill="#FF0032"/>
<path d="M54.8 72.36C52.856 72.36 51.2 72.012 49.832 71.316C48.464 70.596 47.42 69.492 46.7 68.004C45.98 66.516 45.62 64.608 45.62 62.28C45.62 59.88 46.028 57.924 46.844 56.412C47.66 54.9 48.788 53.784 50.228 53.064C51.692 52.344 53.372 51.984 55.268 51.984C56.612 51.984 57.776 52.116 58.76 52.38C59.768 52.644 60.644 52.956 61.388 53.316L59.804 57.456C58.964 57.12 58.172 56.844 57.428 56.628C56.708 56.412 55.988 56.304 55.268 56.304C54.332 56.304 53.552 56.532 52.928 56.988C52.304 57.42 51.836 58.08 51.524 58.968C51.236 59.832 51.092 60.924 51.092 62.244C51.092 63.54 51.248 64.62 51.56 65.484C51.896 66.324 52.376 66.96 53 67.392C53.624 67.8 54.38 68.004 55.268 68.004C56.396 68.004 57.392 67.86 58.256 67.572C59.12 67.26 59.96 66.84 60.776 66.312V70.884C59.96 71.412 59.096 71.784 58.184 72C57.296 72.24 56.168 72.36 54.8 72.36Z" fill="white"/>
<path d="M63.08 20.376H56.636V36H51.272V20.376H44.828V16.344H63.08V20.376Z" fill="white"/>
<path d="M30.576 16.344V36H25.572V26.352C25.572 25.392 25.584 24.456 25.608 23.544C25.656 22.632 25.716 21.792 25.788 21.024H25.68L20.244 36H16.212L10.704 20.988H10.56C10.656 21.78 10.716 22.632 10.74 23.544C10.788 24.432 10.812 25.416 10.812 26.496V36H5.808V16.344H13.404L18.3 29.664L23.268 16.344H30.576Z" fill="white"/>
<path d="M81.36 61V34.696L80.88 29.896L81.36 27.016H88.08V61H81.36ZM94.7775 61V34.744L93.8175 29.944L94.7775 27.016H105.242C107.546 27.016 109.754 27.24 111.866 27.688C114.01 28.104 115.914 28.904 117.578 30.088C119.274 31.272 120.602 32.968 121.562 35.176C122.554 37.384 123.05 40.248 123.05 43.768C123.05 47.288 122.554 50.184 121.562 52.456C120.57 54.696 119.226 56.44 117.53 57.688C115.834 58.936 113.914 59.8 111.77 60.28C109.658 60.76 107.482 61 105.242 61H94.7775ZM101.594 54.76H106.682C110.01 54.76 112.378 53.784 113.786 51.832C115.194 49.848 115.898 47.16 115.898 43.768C115.898 40.376 115.178 37.784 113.738 35.992C112.33 34.168 109.978 33.256 106.682 33.256H101.594V54.76Z" fill="black"/>
</svg>
