<svg width="48" height="47" viewBox="0 0 48 47" fill="none" xmlns="http://www.w3.org/2000/svg">
<path d="M3.88072 39.4188L14.9079 28.7319C15.9127 27.758 17.5741 28.0395 18.202 29.2901L18.282 29.4493C18.4414 29.7667 18.704 30.0204 19.0267 30.1687C20.0298 30.6297 20.2528 31.9566 19.4553 32.7201L7.99609 43.6911C6.71281 44.9197 4.64466 44.7523 3.57576 43.3332C2.67564 42.1382 2.80638 40.4599 3.88072 39.4188Z" stroke="#969FAB" stroke-width="4"/>
<path d="M30.0779 33.6897C21.2763 33.6897 14.1559 26.5876 14.1559 17.8449C14.1559 9.10212 21.2763 2 30.0779 2C38.8796 2 46 9.10212 46 17.8449C46 26.5876 38.8796 33.6897 30.0779 33.6897Z" stroke="#969FAB" stroke-width="4"/>
<path d="M21.1913 14.0524C21.1913 14.0524 21.2752 12.8433 22.9344 10.7087C24.2971 8.95566 26.1701 7.94503 28.2326 7.8621C30.2951 7.77918 31.5259 8.00045 31.5259 8.00045" stroke="#969FAB" stroke-width="3"/>
</svg>
